<?xml version="1.0" encoding="UTF-8"?>
<svg width="230px" height="230px" viewBox="0 0 230 230" version="1.1" xmlns="http://www.w3.org/2000/svg" xmlns:xlink="http://www.w3.org/1999/xlink">
    <!-- Generator: Sketch 50 (54983) - http://www.bohemiancoding.com/sketch -->
    <title>do-logo</title>
    <desc>Created with Sketch.</desc>
    <defs></defs>
    <g id="3rd-party-api" stroke="none" stroke-width="1" fill="none" fill-rule="evenodd">
        <g id="do-logo" fill="#2C69FF">
            <path d="M114.816,230 L114.816,185.472 C161.92,185.472 198.536,138.736 180.504,89.24 C173.88,70.84 159.16,56.304 140.76,49.496 C91.08,31.464 44.528,67.896 44.528,115.184 C44.528,115.184 44.528,115.184 44.528,115.184 L0,115.368 C0,40.112 72.68,-18.4 151.432,6.256 C185.84,16.928 213.256,44.344 223.928,78.752 C248.4,157.504 189.888,230 114.816,230 Z" id="XMLID_288_" fill-rule="nonzero"></path>
            <polygon id="XMLID_286_" points="114.816 185.656 70.656 185.656 70.656 141.496 70.656 141.496 114.816 141.496 114.816 141.496"></polygon>
            <polygon id="XMLID_285_" points="70.472 219.88 36.432 219.88 36.432 219.88 36.432 185.656 70.656 185.656 70.656 219.88"></polygon>
            <path d="M36.616,185.656 L7.912,185.656 C7.912,185.656 7.912,185.656 7.912,185.656 L7.912,157.136 C7.912,157.136 7.912,157.136 7.912,157.136 L36.432,157.136 C36.432,157.136 36.432,157.136 36.432,157.136 L36.432,185.656 L36.616,185.656 Z" id="XMLID_284_"></path>
        </g>
    </g>
</svg>