<?xml version="1.0" encoding="iso-8859-1"?>
<!-- Generator: Adobe Illustrator 19.0.0, SVG Export Plug-In . SVG Version: 6.00 Build 0)  -->
<svg version="1.1" id="Capa_1" xmlns="http://www.w3.org/2000/svg" xmlns:xlink="http://www.w3.org/1999/xlink" x="0px" y="0px"
	 viewBox="0 0 512 512" style="enable-background:new 0 0 512 512;" xml:space="preserve">
<path style="fill:#E55639;" d="M479.718,45.046c-0.635-3.18-2.121-6.361-4.241-8.48c-2.119-2.121-5.301-3.606-8.482-4.242
	L286.75,0.516c-4.453-0.637-9.332,0.848-12.724,4.241l-48.772,48.772c-5.088,5.088-4.239,9.752-4.241,16.964l20.992,31.596
	l-10.177,10.601l-32.02-20.992c-7.21,0-11.876-0.848-16.964,4.241L13.2,265.583c-17.6,17.599-17.601,46.016,0,63.616
	l169.643,169.641c17.389,17.389,46.016,17.6,63.617,0L416.101,329.2c5.09-5.09,4.242-9.756,4.242-16.964l-21.207-30.538
	l14.42-11.876l27.992,21.207c7.21,0,11.876,0.848,16.964-4.241l48.772-48.772c3.394-3.394,5.088-8.057,4.241-12.723L479.718,45.046z
	 M416.101,159.556c-17.599,17.6-46.014,17.6-63.615,0c-17.6-17.601-17.6-46.018,0-63.617c17.601-17.601,46.014-17.601,63.615,0
	S433.702,141.956,416.101,159.556z"/>
<path style="fill:#CF4529;" d="M479.718,45.046c-0.635-3.18-2.121-6.361-4.241-8.48L416.1,95.942c17.6,17.601,17.6,46.014,0,63.615
	c-17.599,17.6-46.014,17.6-63.615,0L98.022,414.021l84.822,84.82c17.389,17.389,46.016,17.6,63.617,0L416.101,329.2
	c5.09-5.09,4.242-9.756,4.242-16.964l-21.207-30.538l14.42-11.876l27.992,21.207c7.21,0,11.876,0.848,16.964-4.241l48.772-48.772
	c3.394-3.394,5.088-8.057,4.241-12.723L479.718,45.046z"/>
<path style="fill:#FFDE33;" d="M182.838,244.372c-17.543-17.543-17.543-46.067,0-63.61c17.528-17.528,46.067-17.557,63.624,0
	c17.514,17.543,17.514,46.067,0.015,63.61c-0.015,0-0.015,0-0.015,0C228.92,261.915,200.382,261.915,182.838,244.372z"/>
<path style="fill:#FFBC33;" d="M246.463,350.401c-17.557-17.556-46.097-17.528-63.624,0c-17.611,17.612-17.553,46.085,0,63.611
	c17.544,17.544,46.081,17.544,63.624,0C263.991,396.483,263.989,367.958,246.463,350.401z"/>
<path style="fill:#FFDE33;" d="M323.646,291.029l-128.293,25.659l-83.761,16.752c-7.846,1.485-15.904-3.604-17.813-11.875
	c-1.484-8.269,3.817-16.115,11.877-17.811l128.293-25.659l83.761-16.752c8.057-1.696,16.115,3.817,17.813,11.875
	C337.006,281.487,331.704,289.332,323.646,291.029z"/>
<g>
	<path style="fill:#A63A3A;" d="M267.664,138.351c-2.969,2.969-6.785,4.241-10.603,4.24c-3.817,0.001-7.633-1.271-10.603-4.24
		l-46.652-46.652l20.993-0.212l0.212-20.993l46.652,46.652C273.602,123.084,273.602,132.412,267.664,138.351z"/>
	<path style="fill:#A63A3A;" d="M341.877,227.561c-3.837,0-7.673-1.464-10.601-4.393l-42.406-42.406
		c-5.857-5.857-5.857-15.346,0-21.203c5.857-5.857,15.346-5.857,21.203,0l42.406,42.406c5.857,5.857,5.857,15.346,0,21.203
		C349.55,226.097,345.713,227.561,341.877,227.561z"/>
</g>
<path style="fill:#992E2E;" d="M420.556,291.242l-0.212,20.993l-46.652-46.652c-5.938-5.938-5.937-15.268,0-21.205
	c5.938-5.938,15.267-5.938,21.205,0l46.652,46.652L420.556,291.242z"/>
<path style="fill:#5C5F66;" d="M405.501,121.531c-3.837,0-7.673-1.464-10.601-4.393c-5.857-5.857-5.857-15.346,0-21.203
	l91.504-91.504c5.857-5.857,15.346-5.857,21.203,0s5.857,15.346,0,21.203l-91.504,91.504
	C413.173,120.067,409.337,121.531,405.501,121.531z"/>
<path style="fill:#FFBC33;" d="M323.646,291.029l-128.293,25.659l38.594-38.594l83.761-16.752
	c8.057-1.696,16.115,3.817,17.813,11.875C337.006,281.487,331.704,289.332,323.646,291.029z"/>
<path style="fill:#992E2E;" d="M352.479,201.966l-21.201-21.201l-21.203,21.203l21.201,21.201c2.928,2.928,6.763,4.392,10.6,4.392
	c3.837,0,7.674-1.463,10.603-4.392C358.336,217.312,358.336,207.823,352.479,201.966z"/>
<path style="fill:#53565C;" d="M507.609,4.433L394.902,117.14c2.928,2.928,6.763,4.391,10.6,4.39c3.837,0,7.671-1.463,10.6-4.392
	l91.503-91.503C513.462,19.778,513.463,10.291,507.609,4.433z"/>
<g>
</g>
<g>
</g>
<g>
</g>
<g>
</g>
<g>
</g>
<g>
</g>
<g>
</g>
<g>
</g>
<g>
</g>
<g>
</g>
<g>
</g>
<g>
</g>
<g>
</g>
<g>
</g>
<g>
</g>
</svg>
